<svg xmlns="http://www.w3.org/2000/svg" viewBox="0 0 1920 1520" font-family="Segoe UI, system-ui, Arial, sans-serif">
  <defs>
    <linearGradient id="bg" x1="0%" y1="0%" x2="100%" y2="100%">
      <stop offset="0%" stop-color="#0b1220"/>
      <stop offset="100%" stop-color="#162032"/>
    </linearGradient>
    <linearGradient id="blue" x1="0%" y1="0%" x2="0%" y2="100%">
      <stop offset="0%" stop-color="#2563eb"/>
      <stop offset="100%" stop-color="#1d4ed8"/>
    </linearGradient>
    <linearGradient id="teal" x1="0%" y1="0%" x2="0%" y2="100%">
      <stop offset="0%" stop-color="#0d9488"/>
      <stop offset="100%" stop-color="#0f766e"/>
    </linearGradient>
    <linearGradient id="orange" x1="0%" y1="0%" x2="0%" y2="100%">
      <stop offset="0%" stop-color="#ea580c"/>
      <stop offset="100%" stop-color="#c2410c"/>
    </linearGradient>
    <linearGradient id="purple" x1="0%" y1="0%" x2="0%" y2="100%">
      <stop offset="0%" stop-color="#8b5cf6"/>
      <stop offset="100%" stop-color="#6d28d9"/>
    </linearGradient>
    <filter id="shadow" x="-6%" y="-6%" width="112%" height="112%">
      <feDropShadow dx="0" dy="3" stdDeviation="4" flood-color="#000" flood-opacity="0.4"/>
    </filter>
    <marker id="a-blue" markerWidth="10" markerHeight="7" refX="9" refY="3.5" orient="auto">
      <polygon points="0 0,10 3.5,0 7" fill="#60a5fa"/>
    </marker>
    <marker id="a-green" markerWidth="10" markerHeight="7" refX="9" refY="3.5" orient="auto">
      <polygon points="0 0,10 3.5,0 7" fill="#34d399"/>
    </marker>
    <marker id="a-orange" markerWidth="10" markerHeight="7" refX="9" refY="3.5" orient="auto">
      <polygon points="0 0,10 3.5,0 7" fill="#fb923c"/>
    </marker>
    <marker id="a-purple" markerWidth="10" markerHeight="7" refX="9" refY="3.5" orient="auto">
      <polygon points="0 0,10 3.5,0 7" fill="#a78bfa"/>
    </marker>
  </defs>

  <rect width="1920" height="1520" fill="url(#bg)"/>

  <!-- ═══ HEADER ═══ -->
  <text x="960" y="56" text-anchor="middle" fill="#f8fafc" font-size="32" font-weight="700">SignalSmith AI</text>
  <text x="960" y="88" text-anchor="middle" fill="#94a3b8" font-size="15">System Architecture — Agentic Splunk Telemetry Optimization</text>
  <text x="960" y="114" text-anchor="middle" fill="#64748b" font-size="12">Shadow validation · Splunk MCP Server · Multi-agent pipeline · Human-governed OTel export</text>

  <!-- Badges -->
  <g transform="translate(560,132)">
    <rect width="120" height="28" rx="14" fill="#1e3a5f" stroke="#3b82f6"/>
    <text x="60" y="18" text-anchor="middle" fill="#93c5fd" font-size="11" font-weight="600">Observability</text>
  </g>
  <g transform="translate(696,132)">
    <rect width="88" height="28" rx="14" fill="#3b1f1f" stroke="#ef4444"/>
    <text x="44" y="18" text-anchor="middle" fill="#fca5a5" font-size="11" font-weight="600">Security</text>
  </g>
  <g transform="translate(800,132)">
    <rect width="168" height="28" rx="14" fill="#2e1f4a" stroke="#a78bfa"/>
    <text x="84" y="18" text-anchor="middle" fill="#c4b5fd" font-size="11" font-weight="600">Platform &amp; Dev Experience</text>
  </g>
  <g transform="translate(984,132)">
    <rect width="156" height="28" rx="14" fill="#431407" stroke="#f97316"/>
    <text x="78" y="18" text-anchor="middle" fill="#fdba74" font-size="11" font-weight="600">Splunk MCP Server</text>
  </g>

  <!-- ═══ TIER 1: SYSTEM OVERVIEW ═══ -->
  <text x="64" y="196" fill="#64748b" font-size="12" font-weight="700" letter-spacing="1.2">SYSTEM OVERVIEW</text>
  <line x1="64" y1="206" x2="1856" y2="206" stroke="#334155" stroke-width="1"/>

  <!-- Operator -->
  <rect x="64" y="228" width="280" height="300" rx="16" fill="#1e293b" stroke="#64748b" stroke-width="1.5" filter="url(#shadow)"/>
  <text x="204" y="262" text-anchor="middle" fill="#94a3b8" font-size="11" font-weight="700" letter-spacing="1">OPERATOR</text>
  <rect x="96" y="280" width="216" height="80" rx="10" fill="#334155"/>
  <text x="204" y="312" text-anchor="middle" fill="#f1f5f9" font-size="14" font-weight="600">Browser</text>
  <text x="204" y="334" text-anchor="middle" fill="#94a3b8" font-size="12">localhost:8080</text>
  <text x="204" y="352" text-anchor="middle" fill="#64748b" font-size="11">Splunk credential login</text>
  <text x="96" y="392" fill="#64748b" font-size="11">• X-Splunk-User header</text>
  <text x="96" y="412" fill="#64748b" font-size="11">• X-Splunk-Pass header</text>
  <text x="96" y="432" fill="#64748b" font-size="11">• Session state in UI</text>
  <text x="96" y="468" fill="#64748b" font-size="11">• Run pipeline · approve</text>
  <text x="96" y="488" fill="#64748b" font-size="11">• Mentor chat · export</text>

  <line x1="344" y1="378" x2="384" y2="378" stroke="#60a5fa" stroke-width="3" marker-end="url(#a-blue)"/>

  <!-- SignalSmith Platform -->
  <rect x="384" y="228" width="720" height="300" rx="16" fill="#111827" stroke="#3b82f6" stroke-width="2" filter="url(#shadow)"/>
  <text x="744" y="262" text-anchor="middle" fill="#93c5fd" font-size="13" font-weight="700" letter-spacing="1">SIGNALSMITH PLATFORM · Port 8080</text>

  <rect x="416" y="284" width="320" height="220" rx="12" fill="#0f172a" stroke="#3b82f6" stroke-width="1"/>
  <text x="576" y="312" text-anchor="middle" fill="#93c5fd" font-size="12" font-weight="600">FRONTEND · React / Vite</text>
  <rect x="436" y="328" width="130" height="36" rx="8" fill="url(#blue)"/>
  <text x="501" y="350" text-anchor="middle" fill="#fff" font-size="10" font-weight="600">SessionContext</text>
  <rect x="576" y="328" width="140" height="36" rx="8" fill="url(#blue)"/>
  <text x="646" y="350" text-anchor="middle" fill="#fff" font-size="10" font-weight="600">REST Client</text>
  <rect x="436" y="376" width="96" height="32" rx="6" fill="#1e293b" stroke="#475569"/>
  <text x="484" y="396" text-anchor="middle" fill="#e2e8f0" font-size="9">Command Center</text>
  <rect x="540" y="376" width="80" height="32" rx="6" fill="#1e293b" stroke="#475569"/>
  <text x="580" y="396" text-anchor="middle" fill="#e2e8f0" font-size="9">Data Flow</text>
  <rect x="628" y="376" width="72" height="32" rx="6" fill="#1e293b" stroke="#475569"/>
  <text x="664" y="396" text-anchor="middle" fill="#e2e8f0" font-size="9">Pipeline</text>
  <rect x="708" y="376" width="80" height="32" rx="6" fill="#1e293b" stroke="#475569"/>
  <text x="748" y="396" text-anchor="middle" fill="#e2e8f0" font-size="9">Validation</text>
  <rect x="436" y="416" width="72" height="32" rx="6" fill="#4c1d95" stroke="#a78bfa"/>
  <text x="472" y="436" text-anchor="middle" fill="#ede9fe" font-size="9" font-weight="600">Mentor</text>
  <rect x="516" y="416" width="72" height="32" rx="6" fill="#1e293b" stroke="#475569"/>
  <text x="552" y="436" text-anchor="middle" fill="#e2e8f0" font-size="9">Approval</text>
  <rect x="596" y="416" width="72" height="32" rx="6" fill="#1e293b" stroke="#475569"/>
  <text x="632" y="436" text-anchor="middle" fill="#e2e8f0" font-size="9">Settings</text>
  <rect x="676" y="416" width="60" height="32" rx="6" fill="#1e293b" stroke="#475569"/>
  <text x="706" y="436" text-anchor="middle" fill="#e2e8f0" font-size="9">MCP</text>
  <text x="436" y="472" fill="#64748b" font-size="10">Live charts · coverage tables · OTel preview</text>

  <rect x="752" y="284" width="332" height="220" rx="12" fill="#0f172a" stroke="#14b8a6" stroke-width="1"/>
  <text x="918" y="312" text-anchor="middle" fill="#5eead4" font-size="12" font-weight="600">BACKEND · FastAPI / Python</text>
  <rect x="772" y="328" width="140" height="40" rx="8" fill="url(#teal)"/>
  <text x="842" y="346" text-anchor="middle" fill="#fff" font-size="10" font-weight="600">REST API</text>
  <text x="842" y="360" text-anchor="middle" fill="#ccfbf1" font-size="8">/api/*</text>
  <rect x="924" y="328" width="148" height="40" rx="8" fill="url(#teal)"/>
  <text x="998" y="346" text-anchor="middle" fill="#fff" font-size="10" font-weight="600">Orchestrator</text>
  <text x="998" y="360" text-anchor="middle" fill="#ccfbf1" font-size="8">8 agents</text>
  <rect x="772" y="380" width="100" height="32" rx="6" fill="#1e293b" stroke="#475569"/>
  <text x="822" y="400" text-anchor="middle" fill="#cbd5e1" font-size="9">MCPClient</text>
  <rect x="882" y="380" width="100" height="32" rx="6" fill="#1e293b" stroke="#475569"/>
  <text x="932" y="400" text-anchor="middle" fill="#cbd5e1" font-size="9">SplunkClient</text>
  <rect x="992" y="380" width="80" height="32" rx="6" fill="#1e293b" stroke="#475569"/>
  <text x="1032" y="400" text-anchor="middle" fill="#cbd5e1" font-size="9">Storage</text>
  <rect x="772" y="422" width="148" height="32" rx="6" fill="#1e293b" stroke="#475569"/>
  <text x="846" y="442" text-anchor="middle" fill="#cbd5e1" font-size="9">SQLite + JSON events</text>
  <rect x="932" y="422" width="140" height="32" rx="6" fill="#1e293b" stroke="#a78bfa"/>
  <text x="1002" y="442" text-anchor="middle" fill="#c4b5fd" font-size="9">GeminiService</text>
  <text x="772" y="478" fill="#64748b" font-size="10">Job runner · audit trail · OTel export</text>

  <line x1="1104" y1="378" x2="1144" y2="378" stroke="#fb923c" stroke-width="3" marker-end="url(#a-orange)"/>

  <!-- Splunk -->
  <rect x="1144" y="228" width="712" height="300" rx="16" fill="#111827" stroke="#f97316" stroke-width="2" filter="url(#shadow)"/>
  <text x="1500" y="262" text-anchor="middle" fill="#fdba74" font-size="13" font-weight="700" letter-spacing="1">SPLUNK ENTERPRISE</text>

  <rect x="1176" y="284" width="148" height="56" rx="10" fill="url(#orange)"/>
  <text x="1250" y="308" text-anchor="middle" fill="#fff" font-size="11" font-weight="600">MCP Server</text>
  <text x="1250" y="326" text-anchor="middle" fill="#ffedd5" font-size="9">:8090 JSON-RPC</text>
  <rect x="1336" y="284" width="132" height="56" rx="10" fill="url(#orange)"/>
  <text x="1402" y="308" text-anchor="middle" fill="#fff" font-size="11" font-weight="600">REST API</text>
  <text x="1402" y="326" text-anchor="middle" fill="#ffedd5" font-size="9">:8089 oneshot</text>
  <rect x="1480" y="284" width="108" height="56" rx="10" fill="url(#orange)"/>
  <text x="1534" y="308" text-anchor="middle" fill="#fff" font-size="11" font-weight="600">HEC</text>
  <text x="1534" y="326" text-anchor="middle" fill="#ffedd5" font-size="9">:8088 ingest</text>
  <rect x="1600" y="284" width="224" height="56" rx="10" fill="#292524" stroke="#78716c"/>
  <text x="1712" y="304" text-anchor="middle" fill="#d6d3d1" font-size="10" font-weight="600">Modes</text>
  <text x="1612" y="322" fill="#a8a29e" font-size="9">splunk_mcp → splunk_api → offline</text>

  <rect x="1176" y="360" width="316" height="140" rx="12" fill="#431407" stroke="#fb923c" stroke-width="1.5"/>
  <text x="1334" y="392" text-anchor="middle" fill="#fed7aa" font-size="13" font-weight="700">Baseline Index</text>
  <text x="1192" y="418" fill="#fdba74" font-size="11">READ ONLY — source telemetry</text>
  <text x="1192" y="440" fill="#a8a29e" font-size="10">Bootstrap export · validation baseline</text>
  <text x="1192" y="460" fill="#a8a29e" font-size="10">Live analytics · never modified</text>
  <text x="1192" y="480" fill="#78716c" font-size="9">Any Splunk index via .env</text>

  <rect x="1512" y="360" width="312" height="140" rx="12" fill="#431407" stroke="#fb923c" stroke-width="1.5"/>
  <text x="1668" y="392" text-anchor="middle" fill="#fed7aa" font-size="13" font-weight="700">Candidate Index</text>
  <text x="1528" y="418" fill="#fdba74" font-size="11">SHADOW — post-policy telemetry</text>
  <text x="1528" y="440" fill="#a8a29e" font-size="10">PolicyEngine output ingested here</text>
  <text x="1528" y="460" fill="#a8a29e" font-size="10">Validation replay target</text>
  <text x="1528" y="480" fill="#78716c" font-size="9">Safe experimentation only</text>

  <!-- ═══ TIER 2: AGENT PIPELINE ═══ -->
  <text x="64" y="572" fill="#64748b" font-size="12" font-weight="700" letter-spacing="1.2">MULTI-AGENT PIPELINE</text>
  <line x1="64" y1="582" x2="1856" y2="582" stroke="#334155" stroke-width="1"/>

  <rect x="64" y="604" width="1792" height="148" rx="16" fill="#0f172a" stroke="#2dd4bf" stroke-width="1.5" filter="url(#shadow)"/>
  <text x="96" y="636" fill="#5eead4" font-size="12" font-weight="600">Deterministic · auditable · human gates on policy + approval</text>

  <!-- 8 agents evenly spaced -->
  <g id="agents">
    <rect x="96" y="656" width="148" height="72" rx="10" fill="#134e4a" stroke="#2dd4bf"/>
    <text x="170" y="682" text-anchor="middle" fill="#99f6e4" font-size="11" font-weight="700">1 · Discovery</text>
    <text x="170" y="700" text-anchor="middle" fill="#5eead4" font-size="9">Indexes · SPL export</text>
    <text x="170" y="716" text-anchor="middle" fill="#64748b" font-size="8">analyze</text>

    <line x1="244" y1="692" x2="268" y2="692" stroke="#34d399" stroke-width="2.5" marker-end="url(#a-green)"/>

    <rect x="268" y="656" width="148" height="72" rx="10" fill="#134e4a" stroke="#2dd4bf"/>
    <text x="342" y="682" text-anchor="middle" fill="#99f6e4" font-size="11" font-weight="700">2 · Profiler</text>
    <text x="342" y="700" text-anchor="middle" fill="#5eead4" font-size="9">Noise quantification</text>
    <text x="342" y="716" text-anchor="middle" fill="#64748b" font-size="8">analyze</text>

    <line x1="416" y1="692" x2="440" y2="692" stroke="#34d399" stroke-width="2.5" marker-end="url(#a-green)"/>

    <rect x="440" y="656" width="148" height="72" rx="10" fill="#134e4a" stroke="#2dd4bf"/>
    <text x="514" y="682" text-anchor="middle" fill="#99f6e4" font-size="11" font-weight="700">3 · Protection</text>
    <text x="514" y="700" text-anchor="middle" fill="#5eead4" font-size="9">Detection mapping</text>
    <text x="514" y="716" text-anchor="middle" fill="#64748b" font-size="8">analyze</text>

    <line x1="588" y1="692" x2="612" y2="692" stroke="#34d399" stroke-width="2.5" marker-end="url(#a-green)"/>

    <rect x="612" y="656" width="148" height="72" rx="10" fill="#134e4a" stroke="#2dd4bf"/>
    <text x="686" y="682" text-anchor="middle" fill="#99f6e4" font-size="11" font-weight="700">4 · PolicyGen</text>
    <text x="686" y="700" text-anchor="middle" fill="#5eead4" font-size="9">Drop · sample rules</text>
    <text x="686" y="716" text-anchor="middle" fill="#fbbf24" font-size="8">human gate</text>

    <line x1="760" y1="692" x2="784" y2="692" stroke="#34d399" stroke-width="2.5" marker-end="url(#a-green)"/>

    <rect x="784" y="656" width="148" height="72" rx="10" fill="#134e4a" stroke="#2dd4bf"/>
    <text x="858" y="682" text-anchor="middle" fill="#99f6e4" font-size="11" font-weight="700">5 · Engine</text>
    <text x="858" y="700" text-anchor="middle" fill="#5eead4" font-size="9">Apply policies</text>
    <text x="858" y="716" text-anchor="middle" fill="#64748b" font-size="8">apply</text>

    <line x1="932" y1="692" x2="956" y2="692" stroke="#34d399" stroke-width="2.5" marker-end="url(#a-green)"/>

    <rect x="956" y="656" width="148" height="72" rx="10" fill="#134e4a" stroke="#2dd4bf"/>
    <text x="1030" y="682" text-anchor="middle" fill="#99f6e4" font-size="11" font-weight="700">6 · Validator</text>
    <text x="1030" y="700" text-anchor="middle" fill="#5eead4" font-size="9">SPL shadow replay</text>
    <text x="1030" y="716" text-anchor="middle" fill="#64748b" font-size="8">validate</text>

    <line x1="1104" y1="692" x2="1128" y2="692" stroke="#34d399" stroke-width="2.5" marker-end="url(#a-green)"/>

    <rect x="1128" y="656" width="148" height="72" rx="10" fill="#134e4a" stroke="#2dd4bf"/>
    <text x="1202" y="682" text-anchor="middle" fill="#99f6e4" font-size="11" font-weight="700">7 · Revision</text>
    <text x="1202" y="700" text-anchor="middle" fill="#5eead4" font-size="9">Auto-fix on FAIL</text>
    <text x="1202" y="716" text-anchor="middle" fill="#fbbf24" font-size="8">human gate</text>

    <rect x="1312" y="656" width="148" height="72" rx="10" fill="#4c1d95" stroke="#a78bfa"/>
    <text x="1386" y="682" text-anchor="middle" fill="#ede9fe" font-size="11" font-weight="700">Mentor</text>
    <text x="1386" y="700" text-anchor="middle" fill="#c4b5fd" font-size="9">SPL · coaching</text>
    <text x="1386" y="716" text-anchor="middle" fill="#64748b" font-size="8">assist any phase</text>
  </g>

  <!-- Fail loop -->
  <path d="M 1202 728 Q 1202 756 1030 756 Q 858 756 858 728" fill="none" stroke="#f87171" stroke-width="1.5" stroke-dasharray="6,4" marker-end="url(#a-blue)"/>
  <text x="1030" y="772" text-anchor="middle" fill="#f87171" font-size="9">coverage regression → revise → re-validate</text>

  <!-- ═══ TIER 3: SHADOW VALIDATION ═══ -->
  <text x="64" y="800" fill="#64748b" font-size="12" font-weight="700" letter-spacing="1.2">SHADOW VALIDATION</text>
  <line x1="64" y1="810" x2="1856" y2="810" stroke="#334155" stroke-width="1"/>

  <rect x="64" y="832" width="1792" height="160" rx="16" fill="#0f172a" stroke="#f97316" stroke-width="1.5" filter="url(#shadow)"/>
  <text x="96" y="864" fill="#fdba74" font-size="12" font-weight="600">Real SPL hit counts via MCP — baseline vs candidate — any custom detections</text>

  <rect x="96" y="884" width="240" height="88" rx="12" fill="#431407" stroke="#fb923c"/>
  <text x="216" y="914" text-anchor="middle" fill="#fed7aa" font-size="12" font-weight="600">Baseline Replay</text>
  <text x="216" y="936" text-anchor="middle" fill="#fdba74" font-size="10">Original index hit count</text>
  <text x="216" y="956" text-anchor="middle" fill="#a8a29e" font-size="9">SPL + stats count</text>

  <line x1="336" y1="928" x2="400" y2="928" stroke="#34d399" stroke-width="2.5" marker-end="url(#a-green)"/>

  <rect x="400" y="884" width="280" height="88" rx="12" fill="#1e293b" stroke="#14b8a6" stroke-width="1.5"/>
  <text x="540" y="914" text-anchor="middle" fill="#5eead4" font-size="12" font-weight="600">ReplayValidator</text>
  <text x="540" y="936" text-anchor="middle" fill="#94a3b8" font-size="10">Compare per saved search</text>
  <text x="540" y="956" text-anchor="middle" fill="#94a3b8" font-size="9">PASS if candidate ≥ baseline hits</text>

  <line x1="680" y1="928" x2="744" y2="928" stroke="#34d399" stroke-width="2.5" marker-end="url(#a-green)"/>

  <rect x="744" y="884" width="240" height="88" rx="12" fill="#431407" stroke="#fb923c"/>
  <text x="864" y="914" text-anchor="middle" fill="#fed7aa" font-size="12" font-weight="600">Candidate Replay</text>
  <text x="864" y="936" text-anchor="middle" fill="#fdba74" font-size="10">Shadow index hit count</text>
  <text x="864" y="956" text-anchor="middle" fill="#a8a29e" font-size="9">Post-policy telemetry</text>

  <rect x="1024" y="892" width="800" height="72" rx="10" fill="#14532d" stroke="#4ade80" stroke-width="1"/>
  <text x="1044" y="916" fill="#bbf7d0" font-size="11" font-weight="600">Detections (any SPL via config/detections.json or Splunk MCP discovery)</text>
  <text x="1044" y="938" fill="#86efac" font-size="10">Payment Outage · HTTP 5xx · Credential Stuffing · Slow API · Privileged Login · + your custom SPL</text>
  <text x="1044" y="956" fill="#86efac" font-size="10">Works with application logs · security · Kubernetes · NetOps · any Splunk index</text>

  <!-- ═══ TIER 4: END-TO-END FLOW ═══ -->
  <text x="64" y="1028" fill="#64748b" font-size="12" font-weight="700" letter-spacing="1.2">END-TO-END PIPELINE</text>
  <line x1="64" y1="1038" x2="1856" y2="1038" stroke="#334155" stroke-width="1"/>

  <rect x="64" y="1060" width="1792" height="100" rx="16" fill="#0f172a" stroke="#334155" stroke-width="1.5"/>

  <!-- 8 steps with even spacing -->
  <g font-size="10" font-weight="600">
    <rect x="96" y="1084" width="120" height="56" rx="10" fill="#334155" stroke="#64748b"/>
    <text x="156" y="1108" text-anchor="middle" fill="#f1f5f9">Bootstrap</text>
    <text x="156" y="1126" text-anchor="middle" fill="#94a3b8" font-size="9" font-weight="400">SPL → JSON</text>
    <line x1="216" y1="1112" x2="244" y2="1112" stroke="#34d399" stroke-width="2.5" marker-end="url(#a-green)"/>

    <rect x="244" y="1084" width="120" height="56" rx="10" fill="#334155" stroke="#64748b"/>
    <text x="304" y="1108" text-anchor="middle" fill="#f1f5f9">Analyze</text>
    <text x="304" y="1126" text-anchor="middle" fill="#94a3b8" font-size="9" font-weight="400">4 agents</text>
    <line x1="364" y1="1112" x2="392" y2="1112" stroke="#34d399" stroke-width="2.5" marker-end="url(#a-green)"/>

    <rect x="392" y="1084" width="120" height="56" rx="10" fill="#334155" stroke="#64748b"/>
    <text x="452" y="1108" text-anchor="middle" fill="#f1f5f9">Apply</text>
    <text x="452" y="1126" text-anchor="middle" fill="#94a3b8" font-size="9" font-weight="400">policies</text>
    <line x1="512" y1="1112" x2="540" y2="1112" stroke="#34d399" stroke-width="2.5" marker-end="url(#a-green)"/>

    <rect x="540" y="1084" width="120" height="56" rx="10" fill="#334155" stroke="#64748b"/>
    <text x="600" y="1108" text-anchor="middle" fill="#f1f5f9">Ingest</text>
    <text x="600" y="1126" text-anchor="middle" fill="#94a3b8" font-size="9" font-weight="400">candidate</text>
    <line x1="660" y1="1112" x2="688" y2="1112" stroke="#34d399" stroke-width="2.5" marker-end="url(#a-green)"/>

    <rect x="688" y="1084" width="120" height="56" rx="10" fill="#334155" stroke="#64748b"/>
    <text x="748" y="1108" text-anchor="middle" fill="#f1f5f9">Validate</text>
    <text x="748" y="1126" text-anchor="middle" fill="#94a3b8" font-size="9" font-weight="400">SPL replay</text>
    <line x1="808" y1="1112" x2="836" y2="1112" stroke="#34d399" stroke-width="2.5" marker-end="url(#a-green)"/>

    <rect x="836" y="1084" width="120" height="56" rx="10" fill="#334155" stroke="#64748b"/>
    <text x="896" y="1108" text-anchor="middle" fill="#f1f5f9">Revise</text>
    <text x="896" y="1126" text-anchor="middle" fill="#94a3b8" font-size="9" font-weight="400">if FAIL</text>
    <line x1="956" y1="1112" x2="984" y2="1112" stroke="#34d399" stroke-width="2.5" marker-end="url(#a-green)"/>

    <rect x="984" y="1084" width="120" height="56" rx="10" fill="#334155" stroke="#64748b"/>
    <text x="1044" y="1108" text-anchor="middle" fill="#f1f5f9">Approve</text>
    <text x="1044" y="1126" text-anchor="middle" fill="#94a3b8" font-size="9" font-weight="400">human</text>
    <line x1="1104" y1="1112" x2="1132" y2="1112" stroke="#34d399" stroke-width="2.5" marker-end="url(#a-green)"/>

    <rect x="1132" y="1084" width="140" height="56" rx="10" fill="#14532d" stroke="#4ade80" stroke-width="1.5"/>
    <text x="1202" y="1108" text-anchor="middle" fill="#bbf7d0">OTel YAML</text>
    <text x="1202" y="1126" text-anchor="middle" fill="#86efac" font-size="9" font-weight="400">collector export</text>
  </g>

  <text x="1300" y="1112" fill="#64748b" font-size="11">POST /api/session/run orchestrates all phases</text>

  <!-- ═══ TIER 5: GOVERNANCE + LEGEND ═══ -->
  <text x="64" y="1196" fill="#64748b" font-size="12" font-weight="700" letter-spacing="1.2">GOVERNANCE &amp; LEGEND</text>
  <line x1="64" y1="1206" x2="1856" y2="1206" stroke="#334155" stroke-width="1"/>

  <rect x="64" y="1228" width="560" height="200" rx="16" fill="#052e16" stroke="#22c55e" stroke-width="1.5" filter="url(#shadow)"/>
  <text x="344" y="1260" text-anchor="middle" fill="#bbf7d0" font-size="13" font-weight="700">Governance &amp; Safety</text>
  <text x="88" y="1292" fill="#86efac" font-size="11">No auto-deploy — human approval before OTel export</text>
  <text x="88" y="1316" fill="#86efac" font-size="11">Full audit trail in SQLite for every agent action</text>
  <text x="88" y="1340" fill="#86efac" font-size="11">Production indexes never modified — shadow-only</text>
  <text x="88" y="1364" fill="#86efac" font-size="11">Rollback YAML generated with collector config</text>
  <text x="88" y="1396" fill="#64748b" font-size="10">Apache 2.0 · Splunk Agentic Ops Hackathon</text>

  <rect x="648" y="1228" width="560" height="200" rx="16" fill="#0f172a" stroke="#334155" stroke-width="1.5" filter="url(#shadow)"/>
  <text x="928" y="1260" text-anchor="middle" fill="#e2e8f0" font-size="13" font-weight="700">Data Flow Legend</text>
  <line x1="688" y1="1292" x2="736" y2="1292" stroke="#60a5fa" stroke-width="3" marker-end="url(#a-blue)"/>
  <text x="748" y="1296" fill="#94a3b8" font-size="11">REST API (UI → Backend)</text>
  <line x1="688" y1="1320" x2="736" y2="1320" stroke="#fb923c" stroke-width="3" marker-end="url(#a-orange)"/>
  <text x="748" y="1324" fill="#94a3b8" font-size="11">Splunk query / ingest</text>
  <line x1="688" y1="1348" x2="736" y2="1348" stroke="#34d399" stroke-width="3" marker-end="url(#a-green)"/>
  <text x="748" y="1352" fill="#94a3b8" font-size="11">Pipeline phase progression</text>
  <line x1="688" y1="1376" x2="736" y2="1376" stroke="#a78bfa" stroke-width="2" stroke-dasharray="6,4" marker-end="url(#a-purple)"/>
  <text x="748" y="1380" fill="#94a3b8" font-size="11">Mentor assist (optional)</text>

  <rect x="1232" y="1228" width="624" height="200" rx="16" fill="#0f172a" stroke="#334155" stroke-width="1.5" filter="url(#shadow)"/>
  <text x="1544" y="1260" text-anchor="middle" fill="#e2e8f0" font-size="13" font-weight="700">Key API Endpoints</text>
  <text x="1256" y="1292" fill="#64748b" font-size="10" font-family="Consolas, monospace">POST /api/session/run · /session/bootstrap · /analysis/start</text>
  <text x="1256" y="1316" fill="#64748b" font-size="10" font-family="Consolas, monospace">POST /api/proposals/{id}/apply · /validation/{id}/run</text>
  <text x="1256" y="1340" fill="#64748b" font-size="10" font-family="Consolas, monospace">POST /api/ai/chat · GET /splunk/analytics/live</text>
  <text x="1256" y="1364" fill="#64748b" font-size="10" font-family="Consolas, monospace">POST /api/proposals/{id}/approve · GET /export/otel</text>
  <text x="1256" y="1396" fill="#475569" font-size="10">43 automated tests · CI on push</text>

  <!-- Footer -->
  <rect x="64" y="1456" width="1792" height="48" rx="12" fill="#1e293b" stroke="#334155"/>
  <text x="960" y="1486" text-anchor="middle" fill="#f8fafc" font-size="14" font-weight="600">Cut Splunk ingest cost without cutting incident coverage</text>
</svg>