<svg xmlns="http://www.w3.org/2000/svg" width="1200" height="2460" viewBox="0 0 1200 2460" role="img" aria-labelledby="title desc" preserveAspectRatio="xMidYMin meet">
<title id="title">SignalSmith AI — System Architecture</title>
<desc id="desc">Professional white-theme architecture diagram showing presentation, application, Splunk enterprise, multi-agent pipeline, shadow validation, end-to-end flow, governance, APIs, and telemetry export.</desc>
<defs>
  <marker id="arrow-blue" markerWidth="9" markerHeight="9" refX="8" refY="4.5" orient="auto" markerUnits="strokeWidth">
<path d="M1,1 L8,4.5 L1,8" fill="none" stroke="#2563EB" stroke-width="1.6" stroke-linecap="round" stroke-linejoin="round"/>
</marker>
  <marker id="arrow-green" markerWidth="9" markerHeight="9" refX="8" refY="4.5" orient="auto" markerUnits="strokeWidth">
<path d="M1,1 L8,4.5 L1,8" fill="none" stroke="#059669" stroke-width="1.6" stroke-linecap="round" stroke-linejoin="round"/>
</marker>
  <marker id="arrow-orange" markerWidth="9" markerHeight="9" refX="8" refY="4.5" orient="auto" markerUnits="strokeWidth">
<path d="M1,1 L8,4.5 L1,8" fill="none" stroke="#EA580C" stroke-width="1.6" stroke-linecap="round" stroke-linejoin="round"/>
</marker>
  <marker id="arrow-purple" markerWidth="9" markerHeight="9" refX="8" refY="4.5" orient="auto" markerUnits="strokeWidth">
<path d="M1,1 L8,4.5 L1,8" fill="none" stroke="#7C3AED" stroke-width="1.6" stroke-linecap="round" stroke-linejoin="round"/>
</marker>
  <marker id="arrow-red" markerWidth="9" markerHeight="9" refX="8" refY="4.5" orient="auto" markerUnits="strokeWidth">
<path d="M1,1 L8,4.5 L1,8" fill="none" stroke="#DC2626" stroke-width="1.6" stroke-linecap="round" stroke-linejoin="round"/>
</marker>
  <style>
<![CDATA[
    text{font-family:Inter,"Segoe UI",Arial,sans-serif;fill:#0F172A}
    .section{font-size:15px;font-weight:700;letter-spacing:.08em;text-transform:uppercase;fill:#475569}
    .h1{font-size:30px;font-weight:750;letter-spacing:-.02em}
    .subtitle{font-size:15px;fill:#475569}
    .card-title{font-size:17px;font-weight:700}
    .card-sub{font-size:13px;fill:#475569}
    .mini-title{font-size:15px;font-weight:700}
    .mini-sub{font-size:12px;fill:#475569}
    .label{font-size:12px;font-weight:650;letter-spacing:.02em;fill:#64748B}
    .footer{font-size:12px;fill:#64748B}
    .stroke{stroke:#CBD5E1;stroke-width:1.25;vector-effect:non-scaling-stroke}
    .conn{fill:none;stroke-width:2;stroke-linecap:round;stroke-linejoin:round;vector-effect:non-scaling-stroke}
    .thin{fill:none;stroke-width:1.6;stroke-linecap:round;stroke-linejoin:round;vector-effect:non-scaling-stroke}
  ]]>
</style>
</defs>
<rect width="1200" height="2460" fill="#FFFFFF"/>
<text class="h1" x="600" y="52" text-anchor="middle">SignalSmith AI — System Architecture</text>
<text class="subtitle" x="600" y="82" text-anchor="middle">Agentic Splunk telemetry optimization · Shadow validation · MCP Server · OTel export</text>
<rect x="185" y="103" width="180" height="30" rx="15" fill="#EFF6FF" stroke="#3B82F6" stroke-width="1" vector-effect="non-scaling-stroke"/>
<text class="mini-sub" x="275.0" y="123" text-anchor="middle" fill="#1D4ED8">Observability</text>
<rect x="379" y="103" width="130" height="30" rx="15" fill="#FEF2F2" stroke="#EF4444" stroke-width="1" vector-effect="non-scaling-stroke"/>
<text class="mini-sub" x="444.0" y="123" text-anchor="middle" fill="#B91C1C">Security</text>
<rect x="523" y="103" width="245" height="30" rx="15" fill="#F5F3FF" stroke="#8B5CF6" stroke-width="1" vector-effect="non-scaling-stroke"/>
<text class="mini-sub" x="645.5" y="123" text-anchor="middle" fill="#6D28D9">Platform &amp; Dev Experience</text>
<rect x="782" y="103" width="190" height="30" rx="15" fill="#FFF7ED" stroke="#F97316" stroke-width="1" vector-effect="non-scaling-stroke"/>
<text class="mini-sub" x="877.0" y="123" text-anchor="middle" fill="#C2410C">Splunk MCP Server</text>
<text class="section" x="60" y="154" text-anchor="start">Presentation tier</text>
<line x1="60" y1="166" x2="1140" y2="166" stroke="#E2E8F0" stroke-width="1"/>
<rect x="60" y="182" width="255" height="118" rx="14" fill="#F8FAFC" stroke="#CBD5E1" stroke-width="1.25" vector-effect="non-scaling-stroke"/>
<text class="card-title" x="187.5" y="218" text-anchor="middle">Operator</text>
<text x="187.5" y="244" text-anchor="middle" class="card-sub">
<tspan x="187.5" dy="0">Browser · localhost:8080</tspan>
<tspan x="187.5" dy="20">Splunk credential login</tspan>
</text>
<rect x="375" y="182" width="765" height="118" rx="14" fill="#EFF6FF" stroke="#3B82F6" stroke-width="1.25" vector-effect="non-scaling-stroke"/>
<text class="card-title" x="757.5" y="215" text-anchor="middle" fill="#1E3A8A">React Dashboard · Vite + TypeScript</text>
<text x="757.5" y="241" text-anchor="middle" class="card-sub" fill="#1D4ED8">
<tspan x="757.5" dy="0">SessionContext · REST client / SSE · Splunk auth gate</tspan>
<tspan x="757.5" dy="21">Views: Command Center · Data Flow · Pipeline · Validation · Approval</tspan>
</text>
<line x1="315" y1="241" x2="375" y2="241" class="conn" stroke="#2563EB" stroke-width="2" marker-end="url(#arrow-blue)"/>
<line x1="758" y1="300" x2="758" y2="352" class="conn" stroke="#2563EB" stroke-width="2" marker-end="url(#arrow-blue)"/>
<text class="section" x="60" y="338" text-anchor="start">Application tier</text>
<line x1="60" y1="350" x2="1140" y2="350" stroke="#E2E8F0" stroke-width="1"/>
<rect x="60" y="366" width="1080" height="365" rx="18" fill="#ECFDF5" stroke="#10B981" stroke-width="1.25" vector-effect="non-scaling-stroke"/>
<text class="card-title" x="600" y="398" text-anchor="middle" fill="#065F46">FastAPI backend · Python · port 8080</text>
<rect x="86" y="424" width="236" height="78" rx="10" fill="#F0FDFA" stroke="#14B8A6" stroke-width="1" vector-effect="non-scaling-stroke"/>
<text class="mini-title" x="204" y="454" text-anchor="middle" fill="#115E59">REST API layer</text>
<text x="204" y="478" text-anchor="middle" class="mini-sub" fill="#115E59">
<tspan x="204" dy="0">/session · /analysis · /mcp</tspan>
</text>
<rect x="350" y="424" width="236" height="78" rx="10" fill="#F0FDFA" stroke="#14B8A6" stroke-width="1" vector-effect="non-scaling-stroke"/>
<text class="mini-title" x="468" y="454" text-anchor="middle" fill="#115E59">AnalysisOrchestrator</text>
<text x="468" y="478" text-anchor="middle" class="mini-sub" fill="#115E59">
<tspan x="468" dy="0">Coordinates agent phases</tspan>
</text>
<rect x="614" y="424" width="236" height="78" rx="10" fill="#F0FDFA" stroke="#14B8A6" stroke-width="1" vector-effect="non-scaling-stroke"/>
<text class="mini-title" x="732" y="454" text-anchor="middle" fill="#115E59">Job Runner</text>
<text x="732" y="478" text-anchor="middle" class="mini-sub" fill="#115E59">
<tspan x="732" dy="0">SSE progress events</tspan>
</text>
<rect x="878" y="424" width="236" height="78" rx="10" fill="#F8FAFC" stroke="#94A3B8" stroke-width="1" vector-effect="non-scaling-stroke"/>
<text class="mini-title" x="996" y="454" text-anchor="middle" fill="#334155">Middleware + Auth</text>
<text x="996" y="478" text-anchor="middle" class="mini-sub" fill="#334155">
<tspan x="996" dy="0">Splunk resolver · CORS</tspan>
</text>
<text class="label" x="86" y="532" text-anchor="start">Integration services</text>
<rect x="86" y="548" width="150" height="70" rx="9" fill="#F8FAFC" stroke="#94A3B8" stroke-width="1" vector-effect="non-scaling-stroke"/>
<text class="mini-title" x="161.0" y="575" text-anchor="middle" fill="#334155">SplunkClient</text>
<text class="mini-sub" x="161.0" y="598" text-anchor="middle" fill="#334155">REST · HEC</text>
<rect x="256" y="548" width="150" height="70" rx="9" fill="#FFF7ED" stroke="#F97316" stroke-width="1" vector-effect="non-scaling-stroke"/>
<text class="mini-title" x="331.0" y="575" text-anchor="middle" fill="#C2410C">MCPClient</text>
<text class="mini-sub" x="331.0" y="598" text-anchor="middle" fill="#C2410C">JSON-RPC</text>
<rect x="426" y="548" width="150" height="70" rx="9" fill="#F8FAFC" stroke="#94A3B8" stroke-width="1" vector-effect="non-scaling-stroke"/>
<text class="mini-title" x="501.0" y="575" text-anchor="middle" fill="#334155">MCPRestBridge</text>
<text class="mini-sub" x="501.0" y="598" text-anchor="middle" fill="#334155">REST fallback</text>
<rect x="596" y="548" width="150" height="70" rx="9" fill="#F8FAFC" stroke="#94A3B8" stroke-width="1" vector-effect="non-scaling-stroke"/>
<text class="mini-title" x="671.0" y="575" text-anchor="middle" fill="#334155">SplunkAnalytics</text>
<text class="mini-sub" x="671.0" y="598" text-anchor="middle" fill="#334155">live chart SPL</text>
<rect x="766" y="548" width="150" height="70" rx="9" fill="#F5F3FF" stroke="#8B5CF6" stroke-width="1" vector-effect="non-scaling-stroke"/>
<text class="mini-title" x="841.0" y="575" text-anchor="middle" fill="#6D28D9">GeminiService</text>
<text class="mini-sub" x="841.0" y="598" text-anchor="middle" fill="#6D28D9">Mentor · SPL gen</text>
<rect x="936" y="548" width="124" height="70" rx="9" fill="#F7FEE7" stroke="#84CC16" stroke-width="1" vector-effect="non-scaling-stroke"/>
<text class="mini-title" x="998.0" y="575" text-anchor="middle" fill="#3F6212">OTel</text>
<text class="mini-sub" x="998.0" y="598" text-anchor="middle" fill="#3F6212">export</text>
<text class="label" x="86" y="650" text-anchor="start">Local persistence</text>
<rect x="86" y="666" width="230" height="42" rx="8" fill="#F8FAFC" stroke="#CBD5E1" stroke-width="1" vector-effect="non-scaling-stroke"/>
<text class="mini-sub" x="201.0" y="692" text-anchor="middle" fill="#475569">SQLite · signalsmith.db</text>
<rect x="336" y="666" width="240" height="42" rx="8" fill="#F8FAFC" stroke="#CBD5E1" stroke-width="1" vector-effect="non-scaling-stroke"/>
<text class="mini-sub" x="456.0" y="692" text-anchor="middle" fill="#475569">baseline_events.json</text>
<rect x="596" y="666" width="240" height="42" rx="8" fill="#F8FAFC" stroke="#CBD5E1" stroke-width="1" vector-effect="non-scaling-stroke"/>
<text class="mini-sub" x="716.0" y="692" text-anchor="middle" fill="#475569">candidate_events.json</text>
<rect x="856" y="666" width="258" height="42" rx="8" fill="#F8FAFC" stroke="#CBD5E1" stroke-width="1" vector-effect="non-scaling-stroke"/>
<text class="mini-sub" x="985.0" y="692" text-anchor="middle" fill="#475569">samples/ · 250 events</text>
<line x1="600" y1="731" x2="600" y2="780" class="conn" stroke="#EA580C" stroke-width="2" marker-end="url(#arrow-orange)"/>
<text class="section" x="60" y="766" text-anchor="start">Splunk enterprise tier</text>
<line x1="60" y1="778" x2="1140" y2="778" stroke="#E2E8F0" stroke-width="1"/>
<rect x="60" y="794" width="1080" height="310" rx="18" fill="#FFF7ED" stroke="#F97316" stroke-width="1.25" vector-effect="non-scaling-stroke"/>
<text class="card-title" x="600" y="826" text-anchor="middle" fill="#9A3412">Splunk Enterprise · Official MCP Server + REST + HEC</text>
<rect x="86" y="850" width="188" height="82" rx="9" fill="#FFF7ED" stroke="#FB923C" stroke-width="1" vector-effect="non-scaling-stroke"/>
<text class="mini-title" x="180.0" y="880" text-anchor="middle" fill="#9A3412">MCP Server</text>
<text x="180.0" y="904" text-anchor="middle" class="mini-sub" fill="#9A3412">
<tspan x="180.0" dy="0">:8090 · splunk_run_query</tspan>
</text>
<rect x="288" y="850" width="188" height="82" rx="9" fill="#FFF7ED" stroke="#FB923C" stroke-width="1" vector-effect="non-scaling-stroke"/>
<text class="mini-title" x="382.0" y="880" text-anchor="middle" fill="#9A3412">REST API</text>
<text x="382.0" y="904" text-anchor="middle" class="mini-sub" fill="#9A3412">
<tspan x="382.0" dy="0">:8089 · oneshot jobs</tspan>
</text>
<rect x="490" y="850" width="188" height="82" rx="9" fill="#FFF7ED" stroke="#FB923C" stroke-width="1" vector-effect="non-scaling-stroke"/>
<text class="mini-title" x="584.0" y="880" text-anchor="middle" fill="#9A3412">HEC</text>
<text x="584.0" y="904" text-anchor="middle" class="mini-sub" fill="#9A3412">
<tspan x="584.0" dy="0">:8088 · batch POST</tspan>
</text>
<rect x="692" y="850" width="188" height="82" rx="9" fill="#FFF7ED" stroke="#FB923C" stroke-width="1" vector-effect="non-scaling-stroke"/>
<text class="mini-title" x="786.0" y="880" text-anchor="middle" fill="#9A3412">Web UI</text>
<text x="786.0" y="904" text-anchor="middle" class="mini-sub" fill="#9A3412">
<tspan x="786.0" dy="0">:8005 · saved searches</tspan>
</text>
<rect x="894" y="850" width="196" height="82" rx="9" fill="#F8FAFC" stroke="#94A3B8" stroke-width="1" vector-effect="non-scaling-stroke"/>
<text class="mini-title" x="992.0" y="880" text-anchor="middle" fill="#334155">Connection</text>
<text x="992.0" y="904" text-anchor="middle" class="mini-sub" fill="#334155">
<tspan x="992.0" dy="0">MCP → REST</tspan>
<tspan x="992.0" dy="17">→ offline</tspan>
</text>
<rect x="86" y="958" width="500" height="120" rx="11" fill="#FFFBEB" stroke="#F59E0B" stroke-width="1" vector-effect="non-scaling-stroke"/>
<text class="card-title" x="336" y="987" text-anchor="middle" fill="#92400E">signalsmith_baseline</text>
<text x="336" y="1013" text-anchor="middle" class="card-sub" fill="#A16207">
<tspan x="336" dy="0">READ ONLY — never modified in place</tspan>
<tspan x="336" dy="20">Bootstrap export · validation replay</tspan>
<tspan x="336" dy="20">Live analytics · index volume metrics</tspan>
</text>
<rect x="614" y="958" width="500" height="120" rx="11" fill="#FFFBEB" stroke="#F59E0B" stroke-width="1" vector-effect="non-scaling-stroke"/>
<text class="card-title" x="864" y="987" text-anchor="middle" fill="#92400E">signalsmith_candidate</text>
<text x="864" y="1013" text-anchor="middle" class="card-sub" fill="#A16207">
<tspan x="864" dy="0">SHADOW INDEX — post-policy filtered</tspan>
<tspan x="864" dy="20">PolicyEngine output · candidate replay</tspan>
<tspan x="864" dy="20">Tagged validation_source per run</tspan>
</text>
<line x1="600" y1="1104" x2="600" y2="1150" class="conn" stroke="#059669" stroke-width="2" marker-end="url(#arrow-green)"/>
<text class="section" x="60" y="1136" text-anchor="start">AI layer + multi-agent pipeline</text>
<line x1="60" y1="1148" x2="1140" y2="1148" stroke="#E2E8F0" stroke-width="1"/>
<rect x="60" y="1164" width="290" height="310" rx="16" fill="#F5F3FF" stroke="#8B5CF6" stroke-width="1.25" vector-effect="non-scaling-stroke"/>
<text class="card-title" x="205" y="1198" text-anchor="middle" fill="#5B21B6">SignalSmith Mentor</text>
<text x="205" y="1228" text-anchor="middle" class="card-sub" fill="#6D28D9">
<tspan x="205" dy="0">POST /api/ai/chat</tspan>
<tspan x="205" dy="28">Pipeline coaching</tspan>
<tspan x="205" dy="28">POST /api/ai/explain</tspan>
<tspan x="205" dy="28">Policy reasoning</tspan>
<tspan x="205" dy="28">SPL fallback chain:</tspan>
<tspan x="205" dy="28">MCP → Gemini → Template</tspan>
<tspan x="205" dy="28">Session-aware context</tspan>
</text>
<rect x="378" y="1164" width="762" height="310" rx="16" fill="#ECFDF5" stroke="#10B981" stroke-width="1.25" vector-effect="non-scaling-stroke"/>
<text class="card-title" x="759" y="1196" text-anchor="middle" fill="#065F46">Multi-agent pipeline · deterministic + auditable</text>
<text class="card-sub" x="759" y="1221" text-anchor="middle" fill="#047857">Orchestrated by AnalysisOrchestrator · human gates on policy + approval</text>
<rect x="400" y="1248" width="166" height="86" rx="9" fill="#F0FDFA" stroke="#14B8A6" stroke-width="1" vector-effect="non-scaling-stroke"/>
<text class="mini-title" x="483" y="1276" text-anchor="middle" fill="#115E59">1. Discovery</text>
<text x="483" y="1300" text-anchor="middle" class="mini-sub" fill="#0F766E">
<tspan x="483" dy="0">Indexes · saved</tspan>
<tspan x="483" dy="17">searches · export</tspan>
</text>
<rect x="584" y="1248" width="166" height="86" rx="9" fill="#F0FDFA" stroke="#14B8A6" stroke-width="1" vector-effect="non-scaling-stroke"/>
<text class="mini-title" x="667" y="1276" text-anchor="middle" fill="#115E59">2. Profiler</text>
<text x="667" y="1300" text-anchor="middle" class="mini-sub" fill="#0F766E">
<tspan x="667" dy="0">Service · event</tspan>
<tspan x="667" dy="17">noise quantify</tspan>
</text>
<rect x="768" y="1248" width="166" height="86" rx="9" fill="#F0FDFA" stroke="#14B8A6" stroke-width="1" vector-effect="non-scaling-stroke"/>
<text class="mini-title" x="851" y="1276" text-anchor="middle" fill="#115E59">3. Protection</text>
<text x="851" y="1300" text-anchor="middle" class="mini-sub" fill="#0F766E">
<tspan x="851" dy="0">Detection-critical</tspan>
<tspan x="851" dy="17">event mapping</tspan>
</text>
<rect x="952" y="1248" width="166" height="86" rx="9" fill="#F0FDFA" stroke="#14B8A6" stroke-width="1" vector-effect="non-scaling-stroke"/>
<text class="mini-title" x="1035" y="1276" text-anchor="middle" fill="#115E59">4. PolicyGen</text>
<text x="1035" y="1300" text-anchor="middle" class="mini-sub" fill="#0F766E">
<tspan x="1035" dy="0">Drop · sample</tspan>
<tspan x="1035" dy="17">preserve rules</tspan>
</text>
<rect x="478" y="1370" width="184" height="76" rx="9" fill="#F0FDFA" stroke="#14B8A6" stroke-width="1" vector-effect="non-scaling-stroke"/>
<text class="mini-title" x="570" y="1398" text-anchor="middle" fill="#115E59">5. Engine</text>
<text x="570" y="1422" text-anchor="middle" class="mini-sub" fill="#0F766E">
<tspan x="570" dy="0">Apply → candidate</tspan>
</text>
<rect x="682" y="1370" width="184" height="76" rx="9" fill="#F0FDFA" stroke="#14B8A6" stroke-width="1" vector-effect="non-scaling-stroke"/>
<text class="mini-title" x="774" y="1398" text-anchor="middle" fill="#115E59">6. Validator</text>
<text x="774" y="1422" text-anchor="middle" class="mini-sub" fill="#0F766E">
<tspan x="774" dy="0">SPL shadow replay</tspan>
</text>
<rect x="886" y="1370" width="184" height="76" rx="9" fill="#F0FDFA" stroke="#14B8A6" stroke-width="1" vector-effect="non-scaling-stroke"/>
<text class="mini-title" x="978" y="1398" text-anchor="middle" fill="#115E59">7. Revision</text>
<text x="978" y="1422" text-anchor="middle" class="mini-sub" fill="#0F766E">
<tspan x="978" dy="0">Auto-fix on FAIL</tspan>
</text>
<line x1="566" y1="1291" x2="584" y2="1291" class="conn" stroke="#059669" stroke-width="1.7" marker-end="url(#arrow-green)"/>
<line x1="750" y1="1291" x2="768" y2="1291" class="conn" stroke="#059669" stroke-width="1.7" marker-end="url(#arrow-green)"/>
<line x1="934" y1="1291" x2="952" y2="1291" class="conn" stroke="#059669" stroke-width="1.7" marker-end="url(#arrow-green)"/>
<path d="M1118 1291 V1350 H570 V1370" class="conn" stroke="#059669" stroke-width="1.7" marker-end="url(#arrow-green)"/>
<line x1="662" y1="1408" x2="682" y2="1408" class="conn" stroke="#059669" stroke-width="1.7" marker-end="url(#arrow-green)"/>
<line x1="866" y1="1408" x2="886" y2="1408" class="conn" stroke="#059669" stroke-width="1.7" marker-end="url(#arrow-green)"/>
<line x1="350" y1="1318" x2="392" y2="1318" class="conn" stroke="#7C3AED" stroke-width="1.7" marker-end="url(#arrow-purple)" stroke-dasharray="6 5"/>
<text class="mini-sub" x="759" y="1460" text-anchor="middle" fill="#B91C1C">FAIL → re-apply → re-validate loop</text>
<path d="M1068 1446 V1460 H774 V1446" class="conn" stroke="#DC2626" stroke-width="1.7" marker-end="url(#arrow-red)" stroke-dasharray="6 5"/>
<line x1="600" y1="1474" x2="600" y2="1520" class="conn" stroke="#059669" stroke-width="2" marker-end="url(#arrow-green)"/>
<text class="section" x="60" y="1506" text-anchor="start">Shadow validation · core innovation</text>
<line x1="60" y1="1518" x2="1140" y2="1518" stroke="#E2E8F0" stroke-width="1"/>
<rect x="60" y="1534" width="1080" height="278" rx="18" fill="#FEF2F2" stroke="#EF4444" stroke-width="1.25" vector-effect="non-scaling-stroke"/>
<text class="card-title" x="600" y="1568" text-anchor="middle" fill="#991B1B">Shadow validation — real SPL hit counts, not stubbed pass/fail</text>
<rect x="86" y="1600" width="238" height="104" rx="10" fill="#FFFBEB" stroke="#F59E0B" stroke-width="1" vector-effect="non-scaling-stroke"/>
<text class="mini-title" x="205" y="1631" text-anchor="middle" fill="#92400E">Baseline index</text>
<text x="205" y="1656" text-anchor="middle" class="mini-sub" fill="#92400E">
<tspan x="205" dy="0">signalsmith_baseline</tspan>
<tspan x="205" dy="19">original telemetry</tspan>
</text>
<rect x="350" y="1600" width="238" height="104" rx="10" fill="#FFFBEB" stroke="#F59E0B" stroke-width="1" vector-effect="non-scaling-stroke"/>
<text class="mini-title" x="469" y="1631" text-anchor="middle" fill="#92400E">Candidate index</text>
<text x="469" y="1656" text-anchor="middle" class="mini-sub" fill="#92400E">
<tspan x="469" dy="0">signalsmith_candidate</tspan>
<tspan x="469" dy="19">post-policy shadow</tspan>
</text>
<rect x="614" y="1600" width="238" height="104" rx="10" fill="#ECFDF5" stroke="#10B981" stroke-width="1" vector-effect="non-scaling-stroke"/>
<text class="mini-title" x="733" y="1631" text-anchor="middle" fill="#065F46">ReplayValidator</text>
<text x="733" y="1656" text-anchor="middle" class="mini-sub" fill="#065F46">
<tspan x="733" dy="0">SPL + | stats count as count</tspan>
<tspan x="733" dy="19">baseline_hits vs candidate_hits</tspan>
</text>
<rect x="878" y="1600" width="238" height="104" rx="10" fill="#F7FEE7" stroke="#84CC16" stroke-width="1" vector-effect="non-scaling-stroke"/>
<text class="mini-title" x="997" y="1631" text-anchor="middle" fill="#3F6212">Coverage result</text>
<text x="997" y="1656" text-anchor="middle" class="mini-sub" fill="#3F6212">
<tspan x="997" dy="0">PASS: candidate ≥ baseline</tspan>
<tspan x="997" dy="19">FAIL: trigger Revision Agent</tspan>
</text>
<line x1="324" y1="1652" x2="350" y2="1652" class="conn" stroke="#DC2626" stroke-width="1.7" marker-end="url(#arrow-red)" stroke-dasharray="6 5"/>
<line x1="588" y1="1652" x2="614" y2="1652" class="conn" stroke="#059669" stroke-width="1.7" marker-end="url(#arrow-green)" stroke-dasharray="6 5"/>
<line x1="852" y1="1652" x2="878" y2="1652" class="conn" stroke="#059669" stroke-width="1.7" marker-end="url(#arrow-green)" stroke-dasharray="6 5"/>
<text class="label" x="86" y="1734" text-anchor="start">5 replayed detections</text>
<rect x="86" y="1750" width="188" height="40" rx="20" fill="#F8FAFC" stroke="#CBD5E1" stroke-width="1" vector-effect="non-scaling-stroke"/>
<text class="mini-sub" x="180.0" y="1776" text-anchor="middle" fill="#475569">Payment Outage</text>
<rect x="286" y="1750" width="220" height="40" rx="20" fill="#F8FAFC" stroke="#CBD5E1" stroke-width="1" vector-effect="non-scaling-stroke"/>
<text class="mini-sub" x="396.0" y="1776" text-anchor="middle" fill="#475569">High HTTP Error Rate</text>
<rect x="518" y="1750" width="174" height="40" rx="20" fill="#F8FAFC" stroke="#CBD5E1" stroke-width="1" vector-effect="non-scaling-stroke"/>
<text class="mini-sub" x="605.0" y="1776" text-anchor="middle" fill="#475569">Slow Payments</text>
<rect x="704" y="1750" width="210" height="40" rx="20" fill="#F8FAFC" stroke="#CBD5E1" stroke-width="1" vector-effect="non-scaling-stroke"/>
<text class="mini-sub" x="809.0" y="1776" text-anchor="middle" fill="#475569">Credential Stuffing</text>
<rect x="926" y="1750" width="182" height="40" rx="20" fill="#F8FAFC" stroke="#CBD5E1" stroke-width="1" vector-effect="non-scaling-stroke"/>
<text class="mini-sub" x="1017.0" y="1776" text-anchor="middle" fill="#475569">Privileged Login</text>
<line x1="600" y1="1812" x2="600" y2="1856" class="conn" stroke="#059669" stroke-width="2" marker-end="url(#arrow-green)"/>
<text class="section" x="60" y="1842" text-anchor="start">End-to-end shadow pipeline</text>
<line x1="60" y1="1854" x2="1140" y2="1854" stroke="#E2E8F0" stroke-width="1"/>
<rect x="60" y="1870" width="1080" height="190" rx="18" fill="#F8FAFC" stroke="#94A3B8" stroke-width="1.25" vector-effect="non-scaling-stroke"/>
<text class="card-title" x="600" y="1904" text-anchor="middle" fill="#334155">POST /api/session/run — orchestrates all phases with SSE progress</text>
<rect x="78" y="1930" width="128" height="98" rx="9" fill="#FFFFFF" stroke="#CBD5E1" stroke-width="1" vector-effect="non-scaling-stroke"/>
<text class="mini-title" x="142.0" y="1960" text-anchor="middle" fill="#334155">Bootstrap</text>
<text x="142.0" y="1985" text-anchor="middle" class="mini-sub" fill="#334155">
<tspan x="142.0" dy="0">SPL → JSON</tspan>
<tspan x="142.0" dy="17">25k events</tspan>
</text>
<line x1="206" y1="1979" x2="218" y2="1979" class="conn" stroke="#059669" stroke-width="1.6" marker-end="url(#arrow-green)"/>
<rect x="218" y="1930" width="128" height="98" rx="9" fill="#FFFFFF" stroke="#CBD5E1" stroke-width="1" vector-effect="non-scaling-stroke"/>
<text class="mini-title" x="282.0" y="1960" text-anchor="middle" fill="#334155">Analyze</text>
<text x="282.0" y="1985" text-anchor="middle" class="mini-sub" fill="#334155">
<tspan x="282.0" dy="0">4 agents run</tspan>
<tspan x="282.0" dy="17">in sequence</tspan>
</text>
<line x1="346" y1="1979" x2="358" y2="1979" class="conn" stroke="#059669" stroke-width="1.6" marker-end="url(#arrow-green)"/>
<rect x="358" y="1930" width="128" height="98" rx="9" fill="#FFFFFF" stroke="#CBD5E1" stroke-width="1" vector-effect="non-scaling-stroke"/>
<text class="mini-title" x="422.0" y="1960" text-anchor="middle" fill="#334155">Apply</text>
<text x="422.0" y="1985" text-anchor="middle" class="mini-sub" fill="#334155">
<tspan x="422.0" dy="0">Policies applied</tspan>
<tspan x="422.0" dy="17">to events</tspan>
</text>
<line x1="486" y1="1979" x2="498" y2="1979" class="conn" stroke="#059669" stroke-width="1.6" marker-end="url(#arrow-green)"/>
<rect x="498" y="1930" width="128" height="98" rx="9" fill="#FFFFFF" stroke="#CBD5E1" stroke-width="1" vector-effect="non-scaling-stroke"/>
<text class="mini-title" x="562.0" y="1960" text-anchor="middle" fill="#334155">Ingest</text>
<text x="562.0" y="1985" text-anchor="middle" class="mini-sub" fill="#334155">
<tspan x="562.0" dy="0">Candidate to</tspan>
<tspan x="562.0" dy="17">shadow index</tspan>
</text>
<line x1="626" y1="1979" x2="638" y2="1979" class="conn" stroke="#059669" stroke-width="1.6" marker-end="url(#arrow-green)"/>
<rect x="638" y="1930" width="128" height="98" rx="9" fill="#FFFFFF" stroke="#CBD5E1" stroke-width="1" vector-effect="non-scaling-stroke"/>
<text class="mini-title" x="702.0" y="1960" text-anchor="middle" fill="#334155">Validate</text>
<text x="702.0" y="1985" text-anchor="middle" class="mini-sub" fill="#334155">
<tspan x="702.0" dy="0">SPL replay</tspan>
<tspan x="702.0" dy="17">hit counts</tspan>
</text>
<line x1="766" y1="1979" x2="778" y2="1979" class="conn" stroke="#059669" stroke-width="1.6" marker-end="url(#arrow-green)"/>
<rect x="778" y="1930" width="128" height="98" rx="9" fill="#FFFFFF" stroke="#CBD5E1" stroke-width="1" vector-effect="non-scaling-stroke"/>
<text class="mini-title" x="842.0" y="1960" text-anchor="middle" fill="#334155">Revise</text>
<text x="842.0" y="1985" text-anchor="middle" class="mini-sub" fill="#334155">
<tspan x="842.0" dy="0">Auto-fix</tspan>
<tspan x="842.0" dy="17">on FAIL</tspan>
</text>
<line x1="906" y1="1979" x2="918" y2="1979" class="conn" stroke="#059669" stroke-width="1.6" marker-end="url(#arrow-green)"/>
<rect x="918" y="1930" width="128" height="98" rx="9" fill="#FFFFFF" stroke="#CBD5E1" stroke-width="1" vector-effect="non-scaling-stroke"/>
<text class="mini-title" x="982.0" y="1960" text-anchor="middle" fill="#334155">Approve</text>
<text x="982.0" y="1985" text-anchor="middle" class="mini-sub" fill="#334155">
<tspan x="982.0" dy="0">Human gate</tspan>
<tspan x="982.0" dy="17">required</tspan>
</text>
<line x1="1046" y1="1979" x2="1058" y2="1979" class="conn" stroke="#059669" stroke-width="1.6" marker-end="url(#arrow-green)"/>
<rect x="1058" y="1930" width="112" height="98" rx="9" fill="#F7FEE7" stroke="#84CC16" stroke-width="1" vector-effect="non-scaling-stroke"/>
<text class="mini-title" x="1114.0" y="1960" text-anchor="middle" fill="#3F6212">OTel</text>
<text x="1114.0" y="1985" text-anchor="middle" class="mini-sub" fill="#3F6212">
<tspan x="1114.0" dy="0">YAML</tspan>
<tspan x="1114.0" dy="17">export</tspan>
</text>
<text class="section" x="60" y="2088" text-anchor="start">Governance + key endpoints</text>
<line x1="60" y1="2100" x2="1140" y2="2100" stroke="#E2E8F0" stroke-width="1"/>
<rect x="60" y="2116" width="520" height="225" rx="16" fill="#F7FEE7" stroke="#84CC16" stroke-width="1.25" vector-effect="non-scaling-stroke"/>
<text class="card-title" x="320" y="2151" text-anchor="middle" fill="#3F6212">Governance &amp; safety</text>
<text x="320" y="2183" text-anchor="middle" class="card-sub" fill="#4D7C0F">
<tspan x="320" dy="0">No auto-deploy — human approval required</tspan>
<tspan x="320" dy="28">Full audit trail logged to SQLite</tspan>
<tspan x="320" dy="28">Source indexes never modified</tspan>
<tspan x="320" dy="28">Rollback YAML generated alongside config</tspan>
<tspan x="320" dy="28">43 automated tests · shadow-only pattern</tspan>
</text>
<rect x="620" y="2116" width="520" height="225" rx="16" fill="#F8FAFC" stroke="#94A3B8" stroke-width="1.25" vector-effect="non-scaling-stroke"/>
<text class="card-title" x="880" y="2151" text-anchor="middle" fill="#334155">Key API endpoints</text>
<text x="880" y="2183" text-anchor="middle" class="card-sub" fill="#475569">
<tspan x="880" dy="0">POST /api/session/run · /session/bootstrap</tspan>
<tspan x="880" dy="28">POST /api/proposals/{id}/apply · /revise</tspan>
<tspan x="880" dy="28">POST /api/validation/{id}/run</tspan>
<tspan x="880" dy="28">POST /api/ai/chat · /mcp/run-query</tspan>
<tspan x="880" dy="28">GET /export/otel · /export/rollback</tspan>
</text>
<text class="section" x="60" y="2376" text-anchor="start">Legend</text>
<line x1="60" y1="2406" x2="108" y2="2406" class="conn" stroke="#2563EB" stroke-width="1.7" marker-end="url(#arrow-blue)"/>
<text class="footer" x="120" y="2411" text-anchor="start">REST / UI request</text>
<line x1="292" y1="2406" x2="340" y2="2406" class="conn" stroke="#EA580C" stroke-width="1.7" marker-end="url(#arrow-orange)"/>
<text class="footer" x="352" y="2411" text-anchor="start">Splunk query / ingest</text>
<line x1="525" y1="2406" x2="573" y2="2406" class="conn" stroke="#059669" stroke-width="1.7" marker-end="url(#arrow-green)"/>
<text class="footer" x="585" y="2411" text-anchor="start">Pipeline phase flow</text>
<line x1="748" y1="2406" x2="796" y2="2406" class="conn" stroke="#7C3AED" stroke-width="1.7" marker-end="url(#arrow-purple)" stroke-dasharray="6 5"/>
<text class="footer" x="808" y="2411" text-anchor="start">AI / Mentor assist (optional)</text>
<line x1="970" y1="2406" x2="1018" y2="2406" class="conn" stroke="#DC2626" stroke-width="1.7" marker-end="url(#arrow-red)" stroke-dasharray="6 5"/>
<text class="footer" x="1030" y="2411" text-anchor="start">Regression / re-validate loop</text>
<text class="footer" x="600" y="2440" text-anchor="middle">SignalSmith: cut Splunk ingest cost without cutting incident coverage</text>
<text class="footer" x="600" y="2457" text-anchor="middle">Apache 2.0 · Splunk Agentic Ops Hackathon · SignalSmith v3.0 · docs/ARCHITECTURE.md</text>
</svg>